<svg xmlns="http://www.w3.org/2000/svg" xmlns:xlink="http://www.w3.org/1999/xlink" width="500" zoomAndPan="magnify" viewBox="0 0 375 374.999991" height="500" preserveAspectRatio="xMidYMid meet" version="1.0"><defs><g/><clipPath id="4f0976ce3b"><path d="M 134.023438 131.722656 L 241.273438 131.722656 L 241.273438 243.472656 L 134.023438 243.472656 Z M 134.023438 131.722656 " clip-rule="nonzero"/></clipPath><clipPath id="23a63f5468"><path d="M 78 102 L 235 102 L 235 307 L 78 307 Z M 78 102 " clip-rule="nonzero"/></clipPath><clipPath id="72f5735fc9"><path d="M 132.410156 345.160156 L 37.355469 152.871094 L 139.550781 102.351562 L 234.605469 294.640625 Z M 132.410156 345.160156 " clip-rule="nonzero"/></clipPath><clipPath id="876469b9b5"><path d="M 37.5 153.167969 L 132.558594 345.453125 L 234.75 294.933594 L 139.695312 102.644531 Z M 37.5 153.167969 " clip-rule="nonzero"/></clipPath><clipPath id="3ba60529aa"><path d="M 37.5 153.167969 L 132.558594 345.453125 L 234.75 294.933594 L 139.695312 102.644531 Z M 37.5 153.167969 " clip-rule="nonzero"/></clipPath><clipPath id="465de08a9e"><path d="M 78 93 L 197 93 L 197 305 L 78 305 Z M 78 93 " clip-rule="nonzero"/></clipPath><clipPath id="de4d3ef3b4"><path d="M 63.390625 294.320312 L 83.515625 83.027344 L 196.257812 93.765625 L 176.132812 305.058594 Z M 63.390625 294.320312 " clip-rule="nonzero"/></clipPath><clipPath id="7e5d9b4d61"><path d="M 83.535156 82.839844 L 63.410156 294.132812 L 176.148438 304.871094 L 196.273438 93.578125 Z M 83.535156 82.839844 " clip-rule="nonzero"/></clipPath><clipPath id="046108c3f8"><path d="M 83.535156 82.839844 L 63.410156 294.132812 L 176.148438 304.871094 L 196.273438 93.578125 Z M 83.535156 82.839844 " clip-rule="nonzero"/></clipPath></defs><rect x="-37.5" width="450" fill="#ffffff" y="-37.499999" height="449.999989" fill-opacity="1"/><rect x="-37.5" width="450" fill="#ffffff" y="-37.499999" height="449.999989" fill-opacity="1"/><rect x="-37.5" width="450" fill="#ffffff" y="-37.499999" height="449.999989" fill-opacity="1"/><g clip-path="url(#4f0976ce3b)"><path fill="#000000" d="M 188.222656 190.746094 C 187.332031 190.746094 186.394531 190.9375 185.414062 191.324219 C 181.671875 192.777344 180.109375 197.695312 179.457031 201.5625 C 178.347656 208.136719 180.289062 216.460938 184.527344 223.285156 C 185.617188 225.042969 186.945312 226.722656 188.453125 228.285156 C 188.96875 227.746094 189.464844 227.183594 189.9375 226.609375 C 193.546875 222.238281 196.085938 214.074219 196.644531 208.609375 C 197.253906 202.632812 195.792969 195.003906 191.820312 191.984375 C 190.734375 191.160156 189.535156 190.746094 188.222656 190.746094 Z M 134.589844 243.433594 C 134.269531 243.433594 134.011719 243.171875 134.011719 242.851562 L 134.011719 180.761719 L 187.628906 131.75 L 241.246094 180.761719 L 241.246094 240.269531 L 240.667969 240.269531 C 233.742188 240.269531 227.371094 240.375 220.628906 240.484375 L 214.652344 240.578125 L 210.734375 240.347656 C 202.972656 239.882812 194.511719 235.785156 188.460938 229.929688 C 181.523438 236.71875 171.507812 240.6875 161.535156 240.460938 C 161.21875 240.457031 160.964844 240.1875 160.972656 239.871094 C 160.976562 239.554688 161.234375 239.304688 161.550781 239.304688 C 161.554688 239.304688 161.5625 239.304688 161.5625 239.304688 C 171.203125 239.539062 180.925781 235.679688 187.644531 229.109375 C 186.066406 227.480469 184.675781 225.730469 183.539062 223.894531 C 179.160156 216.839844 177.160156 208.210938 178.3125 201.371094 C 179.316406 195.402344 181.625 191.554688 184.992188 190.242188 C 187.785156 189.15625 190.386719 189.4375 192.519531 191.0625 C 197.035156 194.492188 198.417969 202.625 197.796875 208.726562 C 197.207031 214.503906 194.625 222.75 190.835938 227.347656 C 190.335938 227.949219 189.8125 228.535156 189.269531 229.105469 C 195.121094 234.773438 203.300781 238.742188 210.800781 239.1875 L 214.679688 239.417969 L 220.609375 239.324219 C 227.167969 239.21875 233.371094 239.117188 240.089844 239.113281 L 240.089844 181.273438 L 187.628906 133.320312 L 135.167969 181.273438 L 135.167969 242.851562 C 135.167969 243.171875 134.910156 243.433594 134.589844 243.433594 " fill-opacity="1" fill-rule="nonzero"/></g><g fill="#000000" fill-opacity="1"><g transform="translate(204.503415, 103.503008)"><g><path d="M 0.878906 0.28125 L 5.34375 1.699219 C 7.449219 2.371094 9.082031 1.695312 9.628906 -0.015625 C 10.070312 -1.40625 9.515625 -2.648438 8.160156 -3.304688 L 8.164062 -3.316406 C 9.375 -3.175781 10.382812 -3.804688 10.765625 -5.003906 C 11.277344 -6.617188 10.449219 -7.972656 8.605469 -8.5625 L 4.140625 -9.980469 Z M 3.265625 -5.148438 L 4.5625 -9.21875 L 8.394531 -8 C 9.890625 -7.523438 10.558594 -6.441406 10.164062 -5.195312 C 9.761719 -3.9375 8.59375 -3.457031 7.101562 -3.929688 Z M 1.660156 -0.101562 L 3.085938 -4.578125 L 6.917969 -3.359375 C 8.660156 -2.804688 9.46875 -1.597656 9.03125 -0.222656 C 8.59375 1.15625 7.238281 1.671875 5.496094 1.121094 Z M 1.660156 -0.101562 "/></g></g></g><g fill="#000000" fill-opacity="1"><g transform="translate(218.653042, 108.334025)"><g><path d="M 5.402344 3.171875 C 8.46875 4.726562 11.53125 3.714844 13.101562 0.617188 C 14.679688 -2.492188 13.6875 -5.5625 10.621094 -7.117188 C 7.550781 -8.671875 4.488281 -7.660156 2.910156 -4.550781 C 1.339844 -1.457031 2.332031 1.613281 5.402344 3.171875 Z M 5.671875 2.636719 C 2.933594 1.246094 2.070312 -1.5 3.472656 -4.265625 C 4.882812 -7.046875 7.609375 -7.972656 10.347656 -6.582031 C 13.074219 -5.199219 13.953125 -2.449219 12.542969 0.332031 C 11.136719 3.101562 8.398438 4.019531 5.671875 2.636719 Z M 5.671875 2.636719 "/></g></g></g><g fill="#000000" fill-opacity="1"><g transform="translate(234.296427, 116.787741)"><g><path d="M 4.765625 4.0625 C 7.515625 6.128906 10.710938 5.667969 12.792969 2.890625 C 14.890625 0.105469 14.449219 -3.089844 11.699219 -5.15625 C 8.949219 -7.226562 5.753906 -6.761719 3.660156 -3.972656 C 1.574219 -1.199219 2.015625 1.996094 4.765625 4.0625 Z M 5.125 3.585938 C 2.671875 1.738281 2.300781 -1.117188 4.164062 -3.597656 C 6.035156 -6.089844 8.882812 -6.523438 11.335938 -4.679688 C 13.78125 -2.84375 14.164062 0.0195312 12.292969 2.515625 C 10.425781 4.992188 7.570312 5.421875 5.125 3.585938 Z M 5.125 3.585938 "/></g></g></g><g fill="#000000" fill-opacity="1"><g transform="translate(248.189216, 127.963378)"><g><path d="M 0.644531 0.660156 L 5.292969 5.414062 L 5.722656 4.996094 L 1.511719 0.691406 L 8.785156 -6.417969 L 8.34375 -6.867188 Z M 0.644531 0.660156 "/></g></g></g><g fill="#000000" fill-opacity="1"><g transform="translate(257.096013, 137.65762)"><g/></g></g><g fill="#000000" fill-opacity="1"><g transform="translate(262.917827, 145.412508)"><g><path d="M 0.472656 0.789062 L 2.878906 4.8125 C 4.015625 6.707031 5.683594 7.285156 7.226562 6.363281 C 8.476562 5.613281 8.882812 4.316406 8.300781 2.925781 L 8.316406 2.917969 C 9.128906 3.828125 10.300781 4.019531 11.382812 3.375 C 12.832031 2.507812 13.113281 0.941406 12.117188 -0.71875 L 9.710938 -4.738281 Z M 5.859375 -1.699219 L 9.523438 -3.890625 L 11.589844 -0.4375 C 12.394531 0.90625 12.179688 2.164062 11.058594 2.835938 C 9.925781 3.511719 8.730469 3.101562 7.925781 1.753906 Z M 1.3125 1.023438 L 5.34375 -1.390625 L 7.410156 2.0625 C 8.347656 3.632812 8.15625 5.074219 6.914062 5.8125 C 5.675781 6.554688 4.316406 6.046875 3.378906 4.476562 Z M 1.3125 1.023438 "/></g></g></g><g fill="#000000" fill-opacity="1"><g transform="translate(270.271464, 158.46063)"><g><path d="M 0.351562 0.851562 L 0.589844 1.433594 L 9.921875 -2.410156 L 9.933594 -2.378906 L 3.019531 7.328125 L 3.390625 8.238281 L 13.347656 4.136719 L 13.109375 3.554688 L 3.777344 7.398438 L 3.765625 7.371094 L 10.679688 -2.339844 L 10.308594 -3.25 Z M 0.351562 0.851562 "/></g></g></g><g fill="#000000" fill-opacity="1"><g transform="translate(275.674386, 172.642746)"><g><path d="M 0.222656 0.894531 L 1.34375 5.441406 C 1.875 7.589844 3.300781 8.628906 5.046875 8.199219 C 6.464844 7.847656 7.230469 6.726562 7.082031 5.230469 L 7.097656 5.226562 C 7.609375 6.332031 8.671875 6.859375 9.894531 6.558594 C 11.535156 6.152344 12.261719 4.742188 11.796875 2.863281 L 10.675781 -1.6875 Z M 6.097656 0.09375 L 10.242188 -0.929688 L 11.207031 2.976562 C 11.585938 4.496094 11.011719 5.636719 9.742188 5.949219 C 8.460938 6.265625 7.4375 5.519531 7.0625 4 Z M 0.953125 1.363281 L 5.515625 0.234375 L 6.480469 4.144531 C 6.917969 5.917969 6.3125 7.238281 4.910156 7.585938 C 3.507812 7.929688 2.355469 7.042969 1.917969 5.269531 Z M 0.953125 1.363281 "/></g></g></g><g fill="#000000" fill-opacity="1"><g transform="translate(278.799647, 187.355811)"><g/></g></g><g fill="#000000" fill-opacity="1"><g transform="translate(279.915098, 196.946385)"><g><path d="M -0.234375 3.589844 L 3.644531 4.734375 L 3.574219 7.960938 L -0.199219 6.863281 L -0.316406 7.335938 L 3.5625 8.453125 L 3.46875 12.707031 L 3.960938 12.730469 L 4.050781 8.585938 L 7.195312 9.515625 L 7.105469 13.570312 L 7.597656 13.566406 L 7.683594 9.648438 L 10.949219 10.597656 L 11.085938 10.125 L 7.695312 9.140625 L 7.765625 5.933594 L 11.046875 6.898438 L 11.164062 6.421875 L 7.777344 5.425781 L 7.867188 1.402344 L 7.375 1.390625 L 7.289062 5.292969 L 4.144531 4.363281 L 4.226562 0.554688 L 3.738281 0.542969 L 3.65625 4.230469 L -0.101562 3.132812 Z M 4.132812 4.871094 L 7.277344 5.785156 L 7.207031 9.007812 L 4.0625 8.09375 Z M 4.132812 4.871094 "/></g></g></g><g fill="#000000" fill-opacity="1"><g transform="translate(278.845231, 216.082618)"><g><path d="M -0.726562 3.878906 L -0.839844 4.5 L 9.15625 6.367188 L 8.457031 10.097656 L 9.046875 10.207031 L 10.554688 2.128906 L 9.96875 2.019531 L 9.269531 5.746094 Z M -0.726562 3.878906 "/></g></g></g><g fill="#000000" fill-opacity="1"><g transform="translate(275.935376, 229.674528)"><g><path d="M -0.292969 0.875 L -2.644531 7.910156 L -2.078125 8.101562 L 0.0742188 1.660156 L 4.535156 3.152344 L 2.625 8.863281 L 3.191406 9.050781 L 5.101562 3.339844 L 9.152344 4.695312 L 7.046875 10.988281 L 7.617188 11.179688 L 9.917969 4.289062 Z M -0.292969 0.875 "/></g></g></g><g fill="#000000" fill-opacity="1"><g transform="translate(271.134909, 242.9185)"><g><path d="M -0.0703125 0.136719 L -0.371094 0.742188 L 1.636719 2.972656 L -0.96875 8.144531 L -3.953125 7.863281 L -4.257812 8.464844 L 7.273438 9.503906 L 7.640625 8.777344 Z M 2.074219 3.433594 L 6.910156 8.855469 L 6.898438 8.882812 L -0.335938 8.222656 Z M 2.074219 3.433594 "/></g></g></g><g fill="#000000" fill-opacity="1"><g transform="translate(264.151097, 256.134927)"><g><path d="M -0.542969 0.746094 L -0.914062 1.253906 L 7.183594 7.148438 L 7.164062 7.171875 L -3.570312 4.90625 L -4.03125 5.539062 L 1.433594 15.046875 L 1.414062 15.070312 L -6.679688 9.175781 L -7.050781 9.6875 L 1.652344 16.023438 L 2.242188 15.214844 L -3.246094 5.632812 L -3.238281 5.621094 L 7.574219 7.890625 L 8.164062 7.082031 Z M -0.542969 0.746094 "/></g></g></g><g fill="#000000" fill-opacity="1"><g transform="translate(252.872353, 270.49787)"><g/></g></g><g fill="#000000" fill-opacity="1"><g transform="translate(245.997146, 277.353611)"><g><path d="M 3.695312 11.390625 C 5.574219 9.851562 5.195312 7.140625 1.710938 3.105469 C 0.105469 1.144531 -1.945312 1.117188 -3.644531 2.507812 C -5.257812 3.832031 -5.507812 5.925781 -4.214844 7.507812 C -2.957031 9.039062 -0.902344 9.199219 0.691406 7.894531 C 1.761719 7.019531 2.265625 5.867188 2.140625 4.601562 C 4.320312 7.378906 4.800781 9.710938 3.316406 10.925781 C 2.019531 11.988281 0.773438 11.460938 -0.582031 10.289062 L -0.984375 10.796875 C 0.621094 12.121094 2.175781 12.636719 3.695312 11.390625 Z M 0.359375 7.390625 C -0.984375 8.492188 -2.683594 8.355469 -3.714844 7.097656 C -4.785156 5.789062 -4.59375 4.0625 -3.261719 2.972656 C -1.863281 1.824219 -0.09375 1.921875 0.960938 3.207031 C 1.992188 4.464844 1.761719 6.242188 0.359375 7.390625 Z M 0.359375 7.390625 "/></g></g></g><g clip-path="url(#23a63f5468)"><g clip-path="url(#72f5735fc9)"><g clip-path="url(#876469b9b5)"><g clip-path="url(#3ba60529aa)"><path fill="#000000" d="M 139.703125 102.871094 C 136.539062 104.347656 133.449219 105.96875 130.433594 107.742188 C 127.429688 109.527344 124.507812 111.464844 121.6875 113.542969 C 116.023438 117.734375 110.832031 122.449219 106.113281 127.691406 C 101.398438 132.957031 97.246094 138.632812 93.65625 144.726562 C 91.859375 147.773438 90.222656 150.902344 88.75 154.113281 C 87.273438 157.324219 85.957031 160.601562 84.800781 163.949219 C 83.644531 167.296875 82.652344 170.695312 81.816406 174.152344 C 80.996094 177.601562 80.351562 181.082031 79.878906 184.605469 C 79.285156 189.007812 78.96875 193.433594 78.921875 197.882812 C 78.878906 202.328125 79.105469 206.761719 79.609375 211.179688 C 80.113281 215.601562 80.886719 219.972656 81.933594 224.300781 C 82.976562 228.625 84.285156 232.871094 85.851562 237.035156 C 87.421875 241.199219 89.242188 245.253906 91.308594 249.195312 C 93.378906 253.132812 95.683594 256.933594 98.222656 260.585938 C 100.757812 264.242188 103.511719 267.726562 106.480469 271.042969 C 109.449219 274.355469 112.609375 277.476562 115.960938 280.398438 C 121.347656 285.066406 127.128906 289.164062 133.316406 292.691406 C 136.398438 294.453125 139.558594 296.054688 142.800781 297.496094 C 146.039062 298.929688 149.339844 300.203125 152.707031 301.320312 C 156.070312 302.433594 159.476562 303.375 162.917969 304.152344 C 166.363281 304.933594 169.84375 305.535156 173.351562 305.953125 C 180.371094 306.804688 187.40625 306.953125 194.449219 306.402344 C 201.476562 305.835938 208.371094 304.578125 215.140625 302.621094 C 218.507812 301.644531 221.8125 300.5 225.066406 299.195312 C 228.316406 297.890625 231.480469 296.421875 234.5625 294.792969 C 234.621094 294.761719 234.636719 294.71875 234.605469 294.660156 C 234.578125 294.597656 234.535156 294.585938 234.476562 294.613281 C 228.210938 297.703125 221.707031 300.160156 214.960938 301.972656 C 212.4375 302.648438 209.890625 303.230469 207.324219 303.71875 C 204.757812 304.207031 202.179688 304.597656 199.582031 304.894531 C 196.988281 305.191406 194.382812 305.390625 191.773438 305.496094 C 189.160156 305.601562 186.550781 305.609375 183.9375 305.519531 C 181.324219 305.429688 178.71875 305.246094 176.121094 304.964844 C 173.519531 304.683594 170.933594 304.308594 168.363281 303.835938 C 165.789062 303.363281 163.238281 302.796875 160.707031 302.136719 C 158.175781 301.472656 155.671875 300.722656 153.195312 299.875 C 150.71875 299.03125 148.277344 298.09375 145.867188 297.070312 C 143.460938 296.042969 141.09375 294.929688 138.765625 293.730469 C 136.4375 292.527344 134.15625 291.242188 131.925781 289.875 C 129.691406 288.503906 127.511719 287.054688 125.382812 285.527344 C 123.257812 283.996094 121.1875 282.390625 119.179688 280.710938 C 117.167969 279.027344 115.222656 277.273438 113.339844 275.449219 C 111.460938 273.621094 109.648438 271.730469 107.90625 269.773438 C 106.164062 267.8125 104.496094 265.792969 102.898438 263.710938 C 98.644531 258.140625 94.964844 252.214844 91.859375 245.929688 C 88.753906 239.648438 86.277344 233.125 84.4375 226.363281 C 82.597656 219.597656 81.441406 212.722656 80.964844 205.734375 C 80.730469 202.246094 80.664062 198.753906 80.769531 195.261719 C 80.875 191.769531 81.148438 188.289062 81.59375 184.824219 C 82.039062 181.359375 82.652344 177.925781 83.433594 174.523438 C 84.214844 171.117188 85.160156 167.761719 86.273438 164.453125 C 87.382812 161.144531 88.648438 157.894531 90.078125 154.710938 C 91.503906 151.527344 93.085938 148.421875 94.816406 145.394531 C 96.546875 142.367188 98.425781 139.433594 100.441406 136.59375 C 102.460938 133.75 104.617188 131.015625 106.902344 128.382812 C 111.492188 123.113281 116.550781 118.351562 122.085938 114.089844 C 127.625 109.832031 133.527344 106.152344 139.789062 103.050781 C 139.847656 103.019531 139.863281 102.976562 139.835938 102.917969 C 139.804688 102.859375 139.761719 102.84375 139.703125 102.871094 Z M 139.703125 102.871094 " fill-opacity="1" fill-rule="nonzero"/></g></g></g></g><g clip-path="url(#465de08a9e)"><g clip-path="url(#de4d3ef3b4)"><g clip-path="url(#7e5d9b4d61)"><g clip-path="url(#046108c3f8)"><path fill="#000000" d="M 196.164062 93.773438 C 192.71875 93.363281 189.261719 93.121094 185.789062 93.042969 C 182.316406 92.976562 178.835938 93.089844 175.367188 93.367188 C 168.390625 93.941406 161.542969 95.203125 154.816406 97.152344 C 148.082031 99.128906 141.609375 101.742188 135.390625 104.996094 C 132.285156 106.621094 129.269531 108.402344 126.34375 110.339844 C 123.417969 112.269531 120.59375 114.339844 117.871094 116.554688 C 115.144531 118.769531 112.527344 121.113281 110.019531 123.585938 C 107.527344 126.058594 105.160156 128.652344 102.921875 131.367188 C 100.121094 134.765625 97.539062 138.320312 95.175781 142.039062 C 92.816406 145.757812 90.695312 149.605469 88.8125 153.585938 C 86.929688 157.570312 85.296875 161.652344 83.921875 165.832031 C 82.542969 170.015625 81.429688 174.269531 80.582031 178.589844 C 79.730469 182.910156 79.148438 187.269531 78.839844 191.660156 C 78.53125 196.054688 78.492188 200.449219 78.730469 204.847656 C 78.964844 209.246094 79.46875 213.613281 80.246094 217.949219 C 81.023438 222.28125 82.0625 226.554688 83.371094 230.757812 C 85.480469 237.492188 88.226562 243.953125 91.613281 250.140625 C 93.296875 253.226562 95.128906 256.222656 97.117188 259.125 C 99.101562 262.019531 101.226562 264.808594 103.488281 267.5 C 105.75 270.191406 108.132812 272.757812 110.636719 275.203125 C 113.140625 277.65625 115.765625 279.972656 118.511719 282.15625 C 124 286.527344 129.863281 290.316406 136.105469 293.523438 C 142.335938 296.710938 148.824219 299.242188 155.5625 301.125 C 158.917969 302.054688 162.308594 302.816406 165.738281 303.414062 C 169.167969 304.007812 172.609375 304.421875 176.0625 304.65625 C 176.128906 304.660156 176.164062 304.632812 176.171875 304.566406 C 176.175781 304.5 176.148438 304.464844 176.082031 304.460938 C 169.175781 303.796875 162.398438 302.472656 155.75 300.484375 C 153.261719 299.738281 150.808594 298.902344 148.386719 297.976562 C 145.964844 297.046875 143.578125 296.035156 141.230469 294.929688 C 138.882812 293.828125 136.578125 292.640625 134.316406 291.367188 C 132.054688 290.097656 129.84375 288.742188 127.683594 287.304688 C 125.523438 285.871094 123.417969 284.359375 121.367188 282.765625 C 119.320312 281.175781 117.332031 279.511719 115.402344 277.773438 C 113.476562 276.035156 111.617188 274.230469 109.824219 272.355469 C 108.03125 270.480469 106.308594 268.542969 104.65625 266.542969 C 103.003906 264.539062 101.429688 262.480469 99.929688 260.363281 C 98.433594 258.246094 97.011719 256.074219 95.675781 253.851562 C 94.335938 251.628906 93.078125 249.359375 91.90625 247.046875 C 90.734375 244.730469 89.648438 242.375 88.652344 239.980469 C 87.652344 237.585938 86.746094 235.15625 85.925781 232.695312 C 85.105469 230.234375 84.378906 227.742188 83.742188 225.226562 C 83.105469 222.710938 82.5625 220.175781 82.113281 217.621094 C 81.664062 215.066406 81.308594 212.496094 81.050781 209.914062 C 80.363281 203.011719 80.351562 196.109375 81.007812 189.203125 C 81.667969 182.296875 82.984375 175.523438 84.960938 168.875 C 86.941406 162.226562 89.554688 155.839844 92.800781 149.710938 C 94.425781 146.652344 96.191406 143.683594 98.105469 140.796875 C 100.019531 137.914062 102.070312 135.128906 104.257812 132.449219 C 106.441406 129.765625 108.753906 127.195312 111.191406 124.738281 C 113.628906 122.28125 116.183594 119.949219 118.847656 117.746094 C 121.515625 115.539062 124.285156 113.46875 127.152344 111.535156 C 130.023438 109.597656 132.980469 107.808594 136.023438 106.164062 C 139.070312 104.519531 142.1875 103.027344 145.378906 101.6875 C 148.566406 100.347656 151.816406 99.167969 155.125 98.148438 C 161.753906 96.105469 168.515625 94.734375 175.417969 94.035156 C 182.324219 93.335938 189.234375 93.316406 196.144531 93.96875 C 196.210938 93.972656 196.246094 93.945312 196.253906 93.878906 C 196.257812 93.816406 196.226562 93.78125 196.164062 93.773438 Z M 196.164062 93.773438 " fill-opacity="1" fill-rule="nonzero"/></g></g></g></g></svg>